<svg id="visual" viewBox="0 0 900 600" width="900" height="600" xmlns="http://www.w3.org/2000/svg" xmlns:xlink="http://www.w3.org/1999/xlink" version="1.1"><path d="M0 301L21.5 273C43 245 86 189 128.8 160C171.7 131 214.3 129 257.2 158C300 187 343 247 385.8 263C428.7 279 471.3 251 514.2 245C557 239 600 255 642.8 264C685.7 273 728.3 275 771.2 253C814 231 857 185 878.5 162L900 139L900 0L878.5 0C857 0 814 0 771.2 0C728.3 0 685.7 0 642.8 0C600 0 557 0 514.2 0C471.3 0 428.7 0 385.8 0C343 0 300 0 257.2 0C214.3 0 171.7 0 128.8 0C86 0 43 0 21.5 0L0 0Z" fill="#244a8c"></path><path d="M0 445L21.5 443C43 441 86 437 128.8 436C171.7 435 214.3 437 257.2 441C300 445 343 451 385.8 449C428.7 447 471.3 437 514.2 437C557 437 600 447 642.8 458C685.7 469 728.3 481 771.2 483C814 485 857 477 878.5 473L900 469L900 137L878.5 160C857 183 814 229 771.2 251C728.3 273 685.7 271 642.8 262C600 253 557 237 514.2 243C471.3 249 428.7 277 385.8 261C343 245 300 185 257.2 156C214.3 127 171.7 129 128.8 158C86 187 43 243 21.5 271L0 299Z" fill="#06295d"></path><path d="M0 601L21.5 601C43 601 86 601 128.8 601C171.7 601 214.3 601 257.2 601C300 601 343 601 385.8 601C428.7 601 471.3 601 514.2 601C557 601 600 601 642.8 601C685.7 601 728.3 601 771.2 601C814 601 857 601 878.5 601L900 601L900 467L878.5 471C857 475 814 483 771.2 481C728.3 479 685.7 467 642.8 456C600 445 557 435 514.2 435C471.3 435 428.7 445 385.8 447C343 449 300 443 257.2 439C214.3 435 171.7 433 128.8 434C86 435 43 439 21.5 441L0 443Z" fill="#022045"></path></svg>